<svg width="107" height="38" viewBox="0 0 107 38" fill="none" xmlns="http://www.w3.org/2000/svg">
<path d="M9.01819 14.84L6.28847 10.94H6.12671H3.27566V14.84H0V0.84H6.12671C7.38036 0.84 8.4655 1.04667 9.38215 1.46C10.3123 1.87333 11.0267 2.46 11.5255 3.22C12.0243 3.98 12.2736 4.88 12.2736 5.92C12.2736 6.96 12.0175 7.86 11.5053 8.62C11.0065 9.36667 10.2921 9.94 9.36193 10.34L12.5365 14.84H9.01819ZM8.95753 5.92C8.95753 5.13333 8.70141 4.53333 8.18916 4.12C7.67692 3.69333 6.92877 3.48 5.94473 3.48H3.27566V8.36H5.94473C6.92877 8.36 7.67692 8.14667 8.18916 7.72C8.70141 7.29333 8.95753 6.69333 8.95753 5.92Z" fill="#FAFAFA"/>
<path d="M19.8229 15C18.677 15 17.6458 14.7667 16.7292 14.3C15.826 13.82 15.1183 13.16 14.6061 12.32C14.0938 11.48 13.8377 10.5267 13.8377 9.46C13.8377 8.39333 14.0938 7.44 14.6061 6.6C15.1183 5.76 15.826 5.10667 16.7292 4.64C17.6458 4.16 18.677 3.92 19.8229 3.92C20.9687 3.92 21.9932 4.16 22.8963 4.64C23.7995 5.10667 24.5072 5.76 25.0194 6.6C25.5317 7.44 25.7878 8.39333 25.7878 9.46C25.7878 10.5267 25.5317 11.48 25.0194 12.32C24.5072 13.16 23.7995 13.82 22.8963 14.3C21.9932 14.7667 20.9687 15 19.8229 15ZM19.8229 12.44C20.6317 12.44 21.2922 12.1733 21.8044 11.64C22.3302 11.0933 22.593 10.3667 22.593 9.46C22.593 8.55333 22.3302 7.83333 21.8044 7.3C21.2922 6.75333 20.6317 6.48 19.8229 6.48C19.0141 6.48 18.3468 6.75333 17.8211 7.3C17.2953 7.83333 17.0325 8.55333 17.0325 9.46C17.0325 10.3667 17.2953 11.0933 17.8211 11.64C18.3468 12.1733 19.0141 12.44 19.8229 12.44Z" fill="#FAFAFA"/>
<path d="M34.3262 3.92C35.3372 3.92 36.2539 4.15333 37.0762 4.62C37.9119 5.07333 38.5657 5.72 39.0375 6.56C39.5093 7.38667 39.7452 8.35333 39.7452 9.46C39.7452 10.5667 39.5093 11.54 39.0375 12.38C38.5657 13.2067 37.9119 13.8533 37.0762 14.32C36.2539 14.7733 35.3372 15 34.3262 15C32.8299 15 31.6909 14.5333 30.909 13.6V14.84H27.8962V0H31.0506V5.22C31.8459 4.35333 32.9378 3.92 34.3262 3.92ZM33.7803 12.44C34.5891 12.44 35.2496 12.1733 35.7619 11.64C36.2876 11.0933 36.5505 10.3667 36.5505 9.46C36.5505 8.55333 36.2876 7.83333 35.7619 7.3C35.2496 6.75333 34.5891 6.48 33.7803 6.48C32.9715 6.48 32.3042 6.75333 31.7785 7.3C31.2663 7.83333 31.0101 8.55333 31.0101 9.46C31.0101 10.3667 31.2663 11.0933 31.7785 11.64C32.3042 12.1733 32.9715 12.44 33.7803 12.44Z" fill="#FAFAFA"/>
<path d="M47.0332 15C45.8874 15 44.8561 14.7667 43.9395 14.3C43.0363 13.82 42.3286 13.16 41.8164 12.32C41.3041 11.48 41.048 10.5267 41.048 9.46C41.048 8.39333 41.3041 7.44 41.8164 6.6C42.3286 5.76 43.0363 5.10667 43.9395 4.64C44.8561 4.16 45.8874 3.92 47.0332 3.92C48.179 3.92 49.2035 4.16 50.1066 4.64C51.0098 5.10667 51.7175 5.76 52.2298 6.6C52.742 7.44 52.9981 8.39333 52.9981 9.46C52.9981 10.5267 52.742 11.48 52.2298 12.32C51.7175 13.16 51.0098 13.82 50.1066 14.3C49.2035 14.7667 48.179 15 47.0332 15ZM47.0332 12.44C47.842 12.44 48.5025 12.1733 49.0148 11.64C49.5405 11.0933 49.8033 10.3667 49.8033 9.46C49.8033 8.55333 49.5405 7.83333 49.0148 7.3C48.5025 6.75333 47.842 6.48 47.0332 6.48C46.2244 6.48 45.5571 6.75333 45.0314 7.3C44.5057 7.83333 44.2428 8.55333 44.2428 9.46C44.2428 10.3667 44.5057 11.0933 45.0314 11.64C45.5571 12.1733 46.2244 12.44 47.0332 12.44Z" fill="#FAFAFA"/>
<path d="M58.1194 5.5C58.4968 4.98 59.0023 4.58667 59.6359 4.32C60.2829 4.05333 61.0243 3.92 61.8601 3.92V6.8C61.5096 6.77333 61.2737 6.76 61.1524 6.76C60.2492 6.76 59.5415 7.01333 59.0293 7.52C58.517 8.01333 58.2609 8.76 58.2609 9.76V14.84H55.1066V4.08H58.1194V5.5Z" fill="#FAFAFA"/>
<path d="M68.0642 3.92C69.7492 3.92 71.0433 4.32 71.9465 5.12C72.8496 5.90667 73.3012 7.1 73.3012 8.7V14.84H70.3491V13.5C69.7559 14.5 68.6506 15 67.033 15C66.1972 15 65.4693 14.86 64.8492 14.58C64.2426 14.3 63.7775 13.9133 63.454 13.42C63.1305 12.9267 62.9687 12.3667 62.9687 11.74C62.9687 10.74 63.3462 9.95333 64.101 9.38C64.8694 8.80667 66.0489 8.52 67.6396 8.52H70.1469C70.1469 7.84 69.9379 7.32 69.52 6.96C69.1022 6.58667 68.4753 6.4 67.6396 6.4C67.0599 6.4 66.487 6.49333 65.9209 6.68C65.3682 6.85333 64.8964 7.09333 64.5054 7.4L63.3731 5.22C63.9662 4.80667 64.6739 4.48667 65.4962 4.26C66.332 4.03333 67.188 3.92 68.0642 3.92ZM67.8215 12.9C68.3608 12.9 68.8393 12.78 69.2572 12.54C69.6751 12.2867 69.9716 11.92 70.1469 11.44V10.34H67.9833C66.6892 10.34 66.0422 10.76 66.0422 11.6C66.0422 12 66.1972 12.32 66.5072 12.56C66.8308 12.7867 67.2689 12.9 67.8215 12.9Z" fill="#FAFAFA"/>
<path d="M85.1136 12.44V14.84H75.4079V12.96L80.9482 6.48H75.5494V4.08H84.9316V5.96L79.3913 12.44H85.1136Z" fill="#FAFAFA"/>
<path d="M92.1731 15C91.0273 15 89.9961 14.7667 89.0794 14.3C88.1762 13.82 87.4685 13.16 86.9563 12.32C86.444 11.48 86.1879 10.5267 86.1879 9.46C86.1879 8.39333 86.444 7.44 86.9563 6.6C87.4685 5.76 88.1762 5.10667 89.0794 4.64C89.9961 4.16 91.0273 3.92 92.1731 3.92C93.3189 3.92 94.3434 4.16 95.2466 4.64C96.1497 5.10667 96.8574 5.76 97.3697 6.6C97.8819 7.44 98.138 8.39333 98.138 9.46C98.138 10.5267 97.8819 11.48 97.3697 12.32C96.8574 13.16 96.1497 13.82 95.2466 14.3C94.3434 14.7667 93.3189 15 92.1731 15ZM92.1731 12.44C92.9819 12.44 93.6424 12.1733 94.1547 11.64C94.6804 11.0933 94.9433 10.3667 94.9433 9.46C94.9433 8.55333 94.6804 7.83333 94.1547 7.3C93.6424 6.75333 92.9819 6.48 92.1731 6.48C91.3643 6.48 90.697 6.75333 90.1713 7.3C89.6456 7.83333 89.3827 8.55333 89.3827 9.46C89.3827 10.3667 89.6456 11.0933 90.1713 11.64C90.697 12.1733 91.3643 12.44 92.1731 12.44Z" fill="#FAFAFA"/>
<path d="M103.259 5.5C103.637 4.98 104.142 4.58667 104.776 4.32C105.423 4.05333 106.164 3.92 107 3.92V6.8C106.65 6.77333 106.414 6.76 106.292 6.76C105.389 6.76 104.681 7.01333 104.169 7.52C103.657 8.01333 103.401 8.76 103.401 9.76V14.84H100.246V4.08H103.259V5.5Z" fill="#FAFAFA"/>
<path d="M0 23H107V38H0V23Z" fill="#4B4B4B"/>
<path d="M18.8391 34C18.2879 34 17.7533 33.9291 17.2353 33.7873C16.7239 33.639 16.3121 33.4489 16 33.2169L16.5479 32.0373C16.8468 32.25 17.2021 32.4208 17.6138 32.5497C18.0256 32.6786 18.4373 32.7431 18.8491 32.7431C19.3073 32.7431 19.646 32.6786 19.8652 32.5497C20.0843 32.4144 20.1939 32.2371 20.1939 32.018C20.1939 31.8568 20.1275 31.7247 19.9947 31.6215C19.8685 31.512 19.7025 31.425 19.4966 31.3605C19.2974 31.296 19.0251 31.2251 18.6797 31.1478C18.1484 31.0253 17.7134 30.9029 17.3747 30.7804C17.036 30.6579 16.7438 30.4613 16.4981 30.1906C16.259 29.9199 16.1395 29.5589 16.1395 29.1077C16.1395 28.7145 16.249 28.36 16.4682 28.0442C16.6874 27.7219 17.0161 27.4673 17.4544 27.2804C17.8994 27.0935 18.4406 27 19.0782 27C19.5232 27 19.9582 27.0516 20.3832 27.1547C20.8082 27.2578 21.1801 27.4061 21.4989 27.5994L21.0008 28.7887C20.3566 28.4342 19.7124 28.2569 19.0682 28.2569C18.6166 28.2569 18.2813 28.3278 18.0621 28.4696C17.8496 28.6114 17.7433 28.7983 17.7433 29.0304C17.7433 29.2624 17.8662 29.4365 18.1119 29.5525C18.3643 29.6621 18.7461 29.7716 19.2575 29.8812C19.7888 30.0037 20.2238 30.1262 20.5625 30.2486C20.9012 30.3711 21.1901 30.5645 21.4292 30.8287C21.6749 31.093 21.7978 31.4507 21.7978 31.9019C21.7978 32.2887 21.6849 32.6432 21.4591 32.9655C21.2399 33.2813 20.9078 33.5327 20.4629 33.7196C20.0179 33.9065 19.4767 34 18.8391 34Z" fill="#FAFAFA"/>
<path d="M31.3704 28.3923H29.1389V27.116H35.2156V28.3923H32.9842V33.884H31.3704V28.3923Z" fill="#FAFAFA"/>
<path d="M46.188 34C45.1918 34 44.4148 33.7325 43.8569 33.1975C43.3057 32.6625 43.0301 31.8987 43.0301 30.9061V27.116H44.6439V30.8481C44.6439 32.0599 45.1619 32.6657 46.198 32.6657C46.7027 32.6657 47.0879 32.5207 47.3535 32.2307C47.6192 31.9342 47.752 31.4733 47.752 30.8481V27.116H49.3459V30.9061C49.3459 31.8987 49.067 32.6625 48.5091 33.1975C47.9579 33.7325 47.1842 34 46.188 34Z" fill="#FAFAFA"/>
<path d="M58.0633 27.116H61.2312C61.9883 27.116 62.6557 27.2578 63.2335 27.5414C63.8179 27.8186 64.2695 28.2118 64.5883 28.721C64.9137 29.2302 65.0764 29.8232 65.0764 30.5C65.0764 31.1768 64.9137 31.7698 64.5883 32.279C64.2695 32.7882 63.8179 33.1846 63.2335 33.4682C62.6557 33.7454 61.9883 33.884 61.2312 33.884H58.0633V27.116ZM61.1515 32.5981C61.8488 32.5981 62.4033 32.4111 62.8151 32.0373C63.2335 31.657 63.4427 31.1446 63.4427 30.5C63.4427 29.8554 63.2335 29.3462 62.8151 28.9724C62.4033 28.5921 61.8488 28.4019 61.1515 28.4019H59.6771V32.5981H61.1515Z" fill="#FAFAFA"/>
<path d="M73.4162 27.116H75.03V33.884H73.4162V27.116Z" fill="#FAFAFA"/>
<path d="M87.1846 34C86.4607 34 85.8066 33.8485 85.2222 33.5456C84.6444 33.2426 84.1894 32.8269 83.8574 32.2983C83.532 31.7634 83.3693 31.1639 83.3693 30.5C83.3693 29.8361 83.532 29.2399 83.8574 28.7113C84.1894 28.1763 84.6444 27.7574 85.2222 27.4544C85.8066 27.1515 86.4607 27 87.1846 27C87.9085 27 88.5594 27.1515 89.1371 27.4544C89.7149 27.7574 90.1699 28.1763 90.5019 28.7113C90.834 29.2399 91 29.8361 91 30.5C91 31.1639 90.834 31.7634 90.5019 32.2983C90.1699 32.8269 89.7149 33.2426 89.1371 33.5456C88.5594 33.8485 87.9085 34 87.1846 34ZM87.1846 32.6657C87.5964 32.6657 87.9683 32.5755 88.3004 32.395C88.6324 32.2081 88.8914 31.9503 89.0774 31.6215C89.27 31.2928 89.3663 30.919 89.3663 30.5C89.3663 30.081 89.27 29.7072 89.0774 29.3785C88.8914 29.0497 88.6324 28.7951 88.3004 28.6146C87.9683 28.4277 87.5964 28.3343 87.1846 28.3343C86.7729 28.3343 86.401 28.4277 86.0689 28.6146C85.7368 28.7951 85.4745 29.0497 85.2819 29.3785C85.096 29.7072 85.003 30.081 85.003 30.5C85.003 30.919 85.096 31.2928 85.2819 31.6215C85.4745 31.9503 85.7368 32.2081 86.0689 32.395C86.401 32.5755 86.7729 32.6657 87.1846 32.6657Z" fill="#FAFAFA"/>
</svg>
