<?xml version="1.0" standalone="no"?>
<!DOCTYPE svg PUBLIC "-//W3C//DTD SVG 20010904//EN"
 "http://www.w3.org/TR/2001/REC-SVG-20010904/DTD/svg10.dtd">
<svg version="1.0" xmlns="http://www.w3.org/2000/svg"
 width="512.000000pt" height="512.000000pt" viewBox="0 0 512.000000 512.000000"
 preserveAspectRatio="xMidYMid meet">
<metadata>
Created by potrace 1.11, written by Peter Selinger 2001-2013
</metadata>
<g transform="translate(0.000000,512.000000) scale(0.100000,-0.100000)"
fill="#000000" stroke="none">
<path d="M2310 5109 c-502 -55 -974 -249 -1355 -556 -129 -104 -340 -321 -433
-445 -271 -362 -440 -774 -504 -1228 -17 -124 -17 -516 0 -635 67 -464 234
-873 501 -1230 92 -122 304 -341 426 -440 365 -296 814 -489 1295 -557 124
-17 516 -17 635 0 490 70 922 254 1294 551 498 399 831 985 927 1636 22 147
29 428 15 575 -51 524 -238 988 -558 1385 -104 129 -321 340 -445 433 -354
265 -755 432 -1193 498 -121 18 -487 26 -605 13z m680 -1113 c514 -98 826
-396 880 -841 51 -421 -135 -781 -498 -964 l-63 -32 34 -47 c19 -26 144 -202
277 -392 133 -190 258 -366 277 -392 l35 -48 -345 0 -344 0 -264 378 -265 377
-297 3 -297 2 0 -380 0 -380 -320 0 -320 0 0 1371 0 1370 708 -3 c630 -4 717
-6 802 -22z"/>
<path d="M2120 3024 l0 -475 348 3 c379 5 404 8 527 68 186 90 273 304 219
540 -29 127 -106 219 -236 280 -111 52 -183 60 -539 60 l-319 0 0 -476z"/>
</g>
</svg>
